M48
;DRILL file {KiCad (5.0.0)} date 12/18/18 18:11:07
;FORMAT={-:-/ absolute / metric / decimal}
FMAT,2
METRIC,TZ
T1C0.400
T2C1.000
T3C2.300
%
G90
G05
M71
T1
X235.712Y-162.052
X238.76Y-162.052
X240.792Y-162.052
X242.824Y-137.668
T2
X247.396Y-147.83
X247.396Y-150.37
X247.396Y-152.4
X247.396Y-154.94
X229.895Y-164.478
X232.435Y-164.478
X234.975Y-164.478
X237.515Y-164.478
X240.055Y-164.478
X242.595Y-164.478
X247.396Y-130.558
X247.396Y-133.098
X247.396Y-135.128
X247.396Y-137.668
T3
X244.726Y-144.78
X244.726Y-158.5
X244.726Y-127.508
X244.726Y-141.228
T0
M30
