G04 #@! TF.GenerationSoftware,KiCad,Pcbnew,(5.0.0)*
G04 #@! TF.CreationDate,2018-12-19T21:55:00+01:00*
G04 #@! TF.ProjectId,main,6D61696E2E6B696361645F7063620000,rev?*
G04 #@! TF.SameCoordinates,Original*
G04 #@! TF.FileFunction,Legend,Bot*
G04 #@! TF.FilePolarity,Positive*
%FSLAX46Y46*%
G04 Gerber Fmt 4.6, Leading zero omitted, Abs format (unit mm)*
G04 Created by KiCad (PCBNEW (5.0.0)) date 12/19/18 21:55:00*
%MOMM*%
%LPD*%
G01*
G04 APERTURE LIST*
%ADD10C,0.120000*%
%ADD11C,0.150000*%
G04 APERTURE END LIST*
D10*
G04 #@! TO.C,J1*
X248536000Y-126618000D02*
X246206000Y-126618000D01*
X248536000Y-141608000D02*
X246416000Y-141608000D01*
X248536000Y-126618000D02*
X248536000Y-141608000D01*
X234446000Y-126618000D02*
X234446000Y-141608000D01*
X243246000Y-126618000D02*
X234446000Y-126618000D01*
X243046000Y-141608000D02*
X234446000Y-141608000D01*
G04 #@! TO.C,J2*
X243046000Y-160150000D02*
X234446000Y-160150000D01*
X243246000Y-145160000D02*
X234446000Y-145160000D01*
X234446000Y-145160000D02*
X234446000Y-160150000D01*
X248536000Y-145160000D02*
X248536000Y-160150000D01*
X248536000Y-160150000D02*
X246416000Y-160150000D01*
X248536000Y-145160000D02*
X246206000Y-145160000D01*
G04 #@! TO.C,J1*
D11*
X249198380Y-137334666D02*
X249912666Y-137334666D01*
X250055523Y-137287047D01*
X250150761Y-137191809D01*
X250198380Y-137048952D01*
X250198380Y-136953714D01*
X250198380Y-138334666D02*
X250198380Y-137763238D01*
X250198380Y-138048952D02*
X249198380Y-138048952D01*
X249341238Y-137953714D01*
X249436476Y-137858476D01*
X249484095Y-137763238D01*
G04 #@! TO.C,J2*
X249198380Y-155876666D02*
X249912666Y-155876666D01*
X250055523Y-155829047D01*
X250150761Y-155733809D01*
X250198380Y-155590952D01*
X250198380Y-155495714D01*
X249293619Y-156305238D02*
X249246000Y-156352857D01*
X249198380Y-156448095D01*
X249198380Y-156686190D01*
X249246000Y-156781428D01*
X249293619Y-156829047D01*
X249388857Y-156876666D01*
X249484095Y-156876666D01*
X249626952Y-156829047D01*
X250198380Y-156257619D01*
X250198380Y-156876666D01*
G04 #@! TD*
M02*
