G04 #@! TF.GenerationSoftware,KiCad,Pcbnew,(5.0.0)*
G04 #@! TF.CreationDate,2018-12-18T18:11:05+01:00*
G04 #@! TF.ProjectId,main,6D61696E2E6B696361645F7063620000,rev?*
G04 #@! TF.SameCoordinates,Original*
G04 #@! TF.FileFunction,Copper,L1,Top,Signal*
G04 #@! TF.FilePolarity,Positive*
%FSLAX46Y46*%
G04 Gerber Fmt 4.6, Leading zero omitted, Abs format (unit mm)*
G04 Created by KiCad (PCBNEW (5.0.0)) date 12/18/18 18:11:05*
%MOMM*%
%LPD*%
G01*
G04 APERTURE LIST*
G04 #@! TA.AperFunction,ComponentPad*
%ADD10O,1.700000X1.700000*%
G04 #@! TD*
G04 #@! TA.AperFunction,ComponentPad*
%ADD11R,1.700000X1.700000*%
G04 #@! TD*
G04 #@! TA.AperFunction,ComponentPad*
%ADD12C,1.500000*%
G04 #@! TD*
G04 #@! TA.AperFunction,ComponentPad*
%ADD13C,3.000000*%
G04 #@! TD*
G04 #@! TA.AperFunction,ViaPad*
%ADD14C,0.800000*%
G04 #@! TD*
G04 #@! TA.AperFunction,Conductor*
%ADD15C,0.250000*%
G04 #@! TD*
G04 #@! TA.AperFunction,Conductor*
%ADD16C,0.254000*%
G04 #@! TD*
G04 APERTURE END LIST*
D10*
G04 #@! TO.P,J3,6*
G04 #@! TO.N,USB2_DP*
X242595400Y-164477700D03*
G04 #@! TO.P,J3,5*
G04 #@! TO.N,USB2_DM*
X240055400Y-164477700D03*
G04 #@! TO.P,J3,4*
G04 #@! TO.N,USB1_DP*
X237515400Y-164477700D03*
G04 #@! TO.P,J3,3*
G04 #@! TO.N,USB1_DM*
X234975400Y-164477700D03*
G04 #@! TO.P,J3,2*
G04 #@! TO.N,GND*
X232435400Y-164477700D03*
D11*
G04 #@! TO.P,J3,1*
G04 #@! TO.N,+5V*
X229895400Y-164477700D03*
G04 #@! TD*
D12*
G04 #@! TO.P,J1,4*
G04 #@! TO.N,GND*
X247396000Y-130558000D03*
G04 #@! TO.P,J1,3*
G04 #@! TO.N,USB1_DP*
X247396000Y-133098000D03*
G04 #@! TO.P,J1,2*
G04 #@! TO.N,USB1_DM*
X247396000Y-135128000D03*
G04 #@! TO.P,J1,1*
G04 #@! TO.N,+5V*
X247396000Y-137668000D03*
D13*
G04 #@! TO.P,J1,5*
G04 #@! TO.N,GND*
X244726000Y-127508000D03*
X244726000Y-141228000D03*
G04 #@! TD*
G04 #@! TO.P,J2,5*
G04 #@! TO.N,GND*
X244726000Y-158500000D03*
X244726000Y-144780000D03*
D12*
G04 #@! TO.P,J2,1*
G04 #@! TO.N,+5V*
X247396000Y-154940000D03*
G04 #@! TO.P,J2,2*
G04 #@! TO.N,USB2_DM*
X247396000Y-152400000D03*
G04 #@! TO.P,J2,3*
G04 #@! TO.N,USB2_DP*
X247396000Y-150370000D03*
G04 #@! TO.P,J2,4*
G04 #@! TO.N,GND*
X247396000Y-147830000D03*
G04 #@! TD*
D14*
G04 #@! TO.N,GND*
X242824000Y-137668000D03*
X235712000Y-162052000D03*
X238760000Y-162052000D03*
X240792000Y-162052000D03*
G04 #@! TD*
D15*
G04 #@! TO.N,GND*
X244726000Y-141228000D02*
X244726000Y-144780000D01*
X247396000Y-130178000D02*
X247396000Y-130558000D01*
X244726000Y-127508000D02*
X247396000Y-130178000D01*
X243226001Y-129007999D02*
X243226001Y-135022001D01*
X244726000Y-127508000D02*
X243226001Y-129007999D01*
X243226001Y-135022001D02*
X243226001Y-137265999D01*
X243226001Y-137265999D02*
X242824000Y-137668000D01*
X232435400Y-164477700D02*
X234861100Y-162052000D01*
X234861100Y-162052000D02*
X235712000Y-162052000D01*
X238760000Y-162052000D02*
X240792000Y-162052000D01*
X240792000Y-148714000D02*
X244726000Y-144780000D01*
X240792000Y-162052000D02*
X240792000Y-148714000D01*
X248471001Y-148905001D02*
X248471001Y-152916001D01*
X247396000Y-147830000D02*
X248471001Y-148905001D01*
X248471001Y-152916001D02*
X247912001Y-153475001D01*
X244726000Y-156378680D02*
X244726000Y-158500000D01*
X247912001Y-153475001D02*
X247269997Y-153475001D01*
X247269997Y-153475001D02*
X244726000Y-156018998D01*
X244726000Y-156018998D02*
X244726000Y-156378680D01*
G04 #@! TO.N,+5V*
X247396000Y-156000660D02*
X247396000Y-154940000D01*
X247396000Y-161416102D02*
X247396000Y-156000660D01*
X243159401Y-165652701D02*
X247396000Y-161416102D01*
X229970401Y-165652701D02*
X243159401Y-165652701D01*
X229895400Y-164477700D02*
X229895400Y-165577700D01*
X229895400Y-165577700D02*
X229970401Y-165652701D01*
X248145999Y-138417999D02*
X247396000Y-137668000D01*
X247396000Y-154940000D02*
X248921012Y-153414988D01*
X248921012Y-139193012D02*
X248145999Y-138417999D01*
X248921012Y-153414988D02*
X248921012Y-139193012D01*
G04 #@! TO.N,USB1_DM*
X234975400Y-164477700D02*
X239268000Y-160185100D01*
X246138001Y-135877999D02*
X246646001Y-135877999D01*
X246646001Y-135877999D02*
X247396000Y-135128000D01*
X241808000Y-140208000D02*
X246138001Y-135877999D01*
X241350800Y-142735300D02*
X241808000Y-142278100D01*
X241350800Y-142748000D02*
X241350800Y-142735300D01*
X241808000Y-142278100D02*
X241808000Y-140208000D01*
X239268000Y-143129000D02*
X239649000Y-142748000D01*
X239268000Y-143281400D02*
X239268000Y-143129000D01*
X239649000Y-142748000D02*
X241350800Y-142748000D01*
X239268000Y-160185100D02*
X239268000Y-143281400D01*
G04 #@! TO.N,USB2_DM*
X246335340Y-152400000D02*
X247396000Y-152400000D01*
X245872000Y-152400000D02*
X246335340Y-152400000D01*
X243332000Y-154940000D02*
X245872000Y-152400000D01*
X240055400Y-164477700D02*
X241808000Y-162725100D01*
X241808000Y-155333700D02*
X242201700Y-154940000D01*
X241808000Y-155397200D02*
X241808000Y-155333700D01*
X242201700Y-154940000D02*
X243332000Y-154940000D01*
X241808000Y-162725100D02*
X241808000Y-155397200D01*
G04 #@! TD*
D16*
G04 #@! TO.N,GND*
G36*
X235341808Y-163036491D02*
X235121656Y-162992700D01*
X234829144Y-162992700D01*
X234395982Y-163078861D01*
X233904775Y-163407075D01*
X233691557Y-163726178D01*
X233630583Y-163596342D01*
X233202324Y-163206055D01*
X232792290Y-163036224D01*
X232562400Y-163157545D01*
X232562400Y-164350700D01*
X232582400Y-164350700D01*
X232582400Y-164604700D01*
X232562400Y-164604700D01*
X232562400Y-164624700D01*
X232308400Y-164624700D01*
X232308400Y-164604700D01*
X232288400Y-164604700D01*
X232288400Y-164350700D01*
X232308400Y-164350700D01*
X232308400Y-163157545D01*
X232078510Y-163036224D01*
X231668476Y-163206055D01*
X231364139Y-163483408D01*
X231343557Y-163379935D01*
X231203209Y-163169891D01*
X230993165Y-163029543D01*
X230745400Y-162980260D01*
X229045400Y-162980260D01*
X228802000Y-163028675D01*
X228802000Y-161238000D01*
X237140298Y-161238000D01*
X235341808Y-163036491D01*
X235341808Y-163036491D01*
G37*
X235341808Y-163036491D02*
X235121656Y-162992700D01*
X234829144Y-162992700D01*
X234395982Y-163078861D01*
X233904775Y-163407075D01*
X233691557Y-163726178D01*
X233630583Y-163596342D01*
X233202324Y-163206055D01*
X232792290Y-163036224D01*
X232562400Y-163157545D01*
X232562400Y-164350700D01*
X232582400Y-164350700D01*
X232582400Y-164604700D01*
X232562400Y-164604700D01*
X232562400Y-164624700D01*
X232308400Y-164624700D01*
X232308400Y-164604700D01*
X232288400Y-164604700D01*
X232288400Y-164350700D01*
X232308400Y-164350700D01*
X232308400Y-163157545D01*
X232078510Y-163036224D01*
X231668476Y-163206055D01*
X231364139Y-163483408D01*
X231343557Y-163379935D01*
X231203209Y-163169891D01*
X230993165Y-163029543D01*
X230745400Y-162980260D01*
X229045400Y-162980260D01*
X228802000Y-163028675D01*
X228802000Y-161238000D01*
X237140298Y-161238000D01*
X235341808Y-163036491D01*
G36*
X246221853Y-153184540D02*
X246611460Y-153574147D01*
X246842870Y-153670000D01*
X246611460Y-153765853D01*
X246221853Y-154155460D01*
X246011000Y-154664506D01*
X246011000Y-155215494D01*
X246221853Y-155724540D01*
X246611460Y-156114147D01*
X246636001Y-156124312D01*
X246636001Y-157511944D01*
X246558739Y-157325418D01*
X246239970Y-157165635D01*
X244905605Y-158500000D01*
X246239970Y-159834365D01*
X246558739Y-159674582D01*
X246636000Y-159477488D01*
X246636000Y-161101300D01*
X243932066Y-163805234D01*
X243666025Y-163407075D01*
X243174818Y-163078861D01*
X242741656Y-162992700D01*
X242529660Y-162992700D01*
X242533480Y-162973495D01*
X242568000Y-162799952D01*
X242568000Y-162799948D01*
X242582888Y-162725100D01*
X242568000Y-162650252D01*
X242568000Y-160013970D01*
X243391635Y-160013970D01*
X243551418Y-160332739D01*
X244342187Y-160642723D01*
X245191387Y-160626497D01*
X245900582Y-160332739D01*
X246060365Y-160013970D01*
X244726000Y-158679605D01*
X243391635Y-160013970D01*
X242568000Y-160013970D01*
X242568000Y-158116187D01*
X242583277Y-158116187D01*
X242599503Y-158965387D01*
X242893261Y-159674582D01*
X243212030Y-159834365D01*
X244546395Y-158500000D01*
X243212030Y-157165635D01*
X242893261Y-157325418D01*
X242583277Y-158116187D01*
X242568000Y-158116187D01*
X242568000Y-156986030D01*
X243391635Y-156986030D01*
X244726000Y-158320395D01*
X246060365Y-156986030D01*
X245900582Y-156667261D01*
X245109813Y-156357277D01*
X244260613Y-156373503D01*
X243551418Y-156667261D01*
X243391635Y-156986030D01*
X242568000Y-156986030D01*
X242568000Y-155700000D01*
X243257153Y-155700000D01*
X243332000Y-155714888D01*
X243406847Y-155700000D01*
X243406852Y-155700000D01*
X243628537Y-155655904D01*
X243879929Y-155487929D01*
X243922331Y-155424470D01*
X246186803Y-153160000D01*
X246211688Y-153160000D01*
X246221853Y-153184540D01*
X246221853Y-153184540D01*
G37*
X246221853Y-153184540D02*
X246611460Y-153574147D01*
X246842870Y-153670000D01*
X246611460Y-153765853D01*
X246221853Y-154155460D01*
X246011000Y-154664506D01*
X246011000Y-155215494D01*
X246221853Y-155724540D01*
X246611460Y-156114147D01*
X246636001Y-156124312D01*
X246636001Y-157511944D01*
X246558739Y-157325418D01*
X246239970Y-157165635D01*
X244905605Y-158500000D01*
X246239970Y-159834365D01*
X246558739Y-159674582D01*
X246636000Y-159477488D01*
X246636000Y-161101300D01*
X243932066Y-163805234D01*
X243666025Y-163407075D01*
X243174818Y-163078861D01*
X242741656Y-162992700D01*
X242529660Y-162992700D01*
X242533480Y-162973495D01*
X242568000Y-162799952D01*
X242568000Y-162799948D01*
X242582888Y-162725100D01*
X242568000Y-162650252D01*
X242568000Y-160013970D01*
X243391635Y-160013970D01*
X243551418Y-160332739D01*
X244342187Y-160642723D01*
X245191387Y-160626497D01*
X245900582Y-160332739D01*
X246060365Y-160013970D01*
X244726000Y-158679605D01*
X243391635Y-160013970D01*
X242568000Y-160013970D01*
X242568000Y-158116187D01*
X242583277Y-158116187D01*
X242599503Y-158965387D01*
X242893261Y-159674582D01*
X243212030Y-159834365D01*
X244546395Y-158500000D01*
X243212030Y-157165635D01*
X242893261Y-157325418D01*
X242583277Y-158116187D01*
X242568000Y-158116187D01*
X242568000Y-156986030D01*
X243391635Y-156986030D01*
X244726000Y-158320395D01*
X246060365Y-156986030D01*
X245900582Y-156667261D01*
X245109813Y-156357277D01*
X244260613Y-156373503D01*
X243551418Y-156667261D01*
X243391635Y-156986030D01*
X242568000Y-156986030D01*
X242568000Y-155700000D01*
X243257153Y-155700000D01*
X243332000Y-155714888D01*
X243406847Y-155700000D01*
X243406852Y-155700000D01*
X243628537Y-155655904D01*
X243879929Y-155487929D01*
X243922331Y-155424470D01*
X246186803Y-153160000D01*
X246211688Y-153160000D01*
X246221853Y-153184540D01*
G36*
X246221853Y-136883460D02*
X246011000Y-137392506D01*
X246011000Y-137943494D01*
X246221853Y-138452540D01*
X246611460Y-138842147D01*
X247120506Y-139053000D01*
X247671494Y-139053000D01*
X247696034Y-139042835D01*
X248161013Y-139507815D01*
X248161012Y-146763155D01*
X248119923Y-146617540D01*
X247600829Y-146432799D01*
X247050552Y-146460770D01*
X246672077Y-146617540D01*
X246604088Y-146858483D01*
X247396000Y-147650395D01*
X247410143Y-147636253D01*
X247589748Y-147815858D01*
X247575605Y-147830000D01*
X247589748Y-147844143D01*
X247410143Y-148023748D01*
X247396000Y-148009605D01*
X246604088Y-148801517D01*
X246672077Y-149042460D01*
X246838658Y-149101745D01*
X246611460Y-149195853D01*
X246221853Y-149585460D01*
X246011000Y-150094506D01*
X246011000Y-150645494D01*
X246221853Y-151154540D01*
X246452313Y-151385000D01*
X246221853Y-151615460D01*
X246211688Y-151640000D01*
X245946846Y-151640000D01*
X245871999Y-151625112D01*
X245797152Y-151640000D01*
X245797148Y-151640000D01*
X245575463Y-151684096D01*
X245575461Y-151684097D01*
X245575462Y-151684097D01*
X245387526Y-151809671D01*
X245387524Y-151809673D01*
X245324071Y-151852071D01*
X245281673Y-151915524D01*
X243017199Y-154180000D01*
X242276547Y-154180000D01*
X242201700Y-154165112D01*
X242126853Y-154180000D01*
X242126848Y-154180000D01*
X241905163Y-154224096D01*
X241653771Y-154392071D01*
X241611369Y-154455530D01*
X241323530Y-154743369D01*
X241260071Y-154785771D01*
X241092096Y-155037163D01*
X241048000Y-155258848D01*
X241048000Y-155258853D01*
X241033112Y-155333700D01*
X241048000Y-155408547D01*
X241048000Y-155472051D01*
X241048001Y-155472056D01*
X241048000Y-162410298D01*
X240421808Y-163036491D01*
X240201656Y-162992700D01*
X239909144Y-162992700D01*
X239475982Y-163078861D01*
X238984775Y-163407075D01*
X238785400Y-163705461D01*
X238586025Y-163407075D01*
X238094818Y-163078861D01*
X237661656Y-162992700D01*
X237535201Y-162992700D01*
X239752473Y-160775429D01*
X239815929Y-160733029D01*
X239983904Y-160481637D01*
X240028000Y-160259952D01*
X240028000Y-160259948D01*
X240042888Y-160185101D01*
X240028000Y-160110254D01*
X240028000Y-147625171D01*
X245998799Y-147625171D01*
X246026770Y-148175448D01*
X246183540Y-148553923D01*
X246424483Y-148621912D01*
X247216395Y-147830000D01*
X246424483Y-147038088D01*
X246183540Y-147106077D01*
X245998799Y-147625171D01*
X240028000Y-147625171D01*
X240028000Y-146293970D01*
X243391635Y-146293970D01*
X243551418Y-146612739D01*
X244342187Y-146922723D01*
X245191387Y-146906497D01*
X245900582Y-146612739D01*
X246060365Y-146293970D01*
X244726000Y-144959605D01*
X243391635Y-146293970D01*
X240028000Y-146293970D01*
X240028000Y-144396187D01*
X242583277Y-144396187D01*
X242599503Y-145245387D01*
X242893261Y-145954582D01*
X243212030Y-146114365D01*
X244546395Y-144780000D01*
X244905605Y-144780000D01*
X246239970Y-146114365D01*
X246558739Y-145954582D01*
X246868723Y-145163813D01*
X246852497Y-144314613D01*
X246558739Y-143605418D01*
X246239970Y-143445635D01*
X244905605Y-144780000D01*
X244546395Y-144780000D01*
X243212030Y-143445635D01*
X242893261Y-143605418D01*
X242583277Y-144396187D01*
X240028000Y-144396187D01*
X240028000Y-143508000D01*
X241275948Y-143508000D01*
X241350800Y-143522889D01*
X241425652Y-143508000D01*
X241647337Y-143463904D01*
X241898729Y-143295929D01*
X241966704Y-143194197D01*
X242292473Y-142868429D01*
X242355929Y-142826029D01*
X242412095Y-142741970D01*
X243391635Y-142741970D01*
X243522978Y-143004000D01*
X243391635Y-143266030D01*
X244726000Y-144600395D01*
X246060365Y-143266030D01*
X245929022Y-143004000D01*
X246060365Y-142741970D01*
X244726000Y-141407605D01*
X243391635Y-142741970D01*
X242412095Y-142741970D01*
X242523904Y-142574637D01*
X242568000Y-142352952D01*
X242568000Y-142352948D01*
X242582888Y-142278101D01*
X242568000Y-142203254D01*
X242568000Y-140522801D01*
X242800339Y-140290462D01*
X242583277Y-140844187D01*
X242599503Y-141693387D01*
X242893261Y-142402582D01*
X243212030Y-142562365D01*
X244546395Y-141228000D01*
X244905605Y-141228000D01*
X246239970Y-142562365D01*
X246558739Y-142402582D01*
X246868723Y-141611813D01*
X246852497Y-140762613D01*
X246558739Y-140053418D01*
X246239970Y-139893635D01*
X244905605Y-141228000D01*
X244546395Y-141228000D01*
X244532253Y-141213858D01*
X244711858Y-141034253D01*
X244726000Y-141048395D01*
X246060365Y-139714030D01*
X245900582Y-139395261D01*
X245109813Y-139085277D01*
X244260613Y-139101503D01*
X243797450Y-139293351D01*
X246452803Y-136637999D01*
X246467314Y-136637999D01*
X246221853Y-136883460D01*
X246221853Y-136883460D01*
G37*
X246221853Y-136883460D02*
X246011000Y-137392506D01*
X246011000Y-137943494D01*
X246221853Y-138452540D01*
X246611460Y-138842147D01*
X247120506Y-139053000D01*
X247671494Y-139053000D01*
X247696034Y-139042835D01*
X248161013Y-139507815D01*
X248161012Y-146763155D01*
X248119923Y-146617540D01*
X247600829Y-146432799D01*
X247050552Y-146460770D01*
X246672077Y-146617540D01*
X246604088Y-146858483D01*
X247396000Y-147650395D01*
X247410143Y-147636253D01*
X247589748Y-147815858D01*
X247575605Y-147830000D01*
X247589748Y-147844143D01*
X247410143Y-148023748D01*
X247396000Y-148009605D01*
X246604088Y-148801517D01*
X246672077Y-149042460D01*
X246838658Y-149101745D01*
X246611460Y-149195853D01*
X246221853Y-149585460D01*
X246011000Y-150094506D01*
X246011000Y-150645494D01*
X246221853Y-151154540D01*
X246452313Y-151385000D01*
X246221853Y-151615460D01*
X246211688Y-151640000D01*
X245946846Y-151640000D01*
X245871999Y-151625112D01*
X245797152Y-151640000D01*
X245797148Y-151640000D01*
X245575463Y-151684096D01*
X245575461Y-151684097D01*
X245575462Y-151684097D01*
X245387526Y-151809671D01*
X245387524Y-151809673D01*
X245324071Y-151852071D01*
X245281673Y-151915524D01*
X243017199Y-154180000D01*
X242276547Y-154180000D01*
X242201700Y-154165112D01*
X242126853Y-154180000D01*
X242126848Y-154180000D01*
X241905163Y-154224096D01*
X241653771Y-154392071D01*
X241611369Y-154455530D01*
X241323530Y-154743369D01*
X241260071Y-154785771D01*
X241092096Y-155037163D01*
X241048000Y-155258848D01*
X241048000Y-155258853D01*
X241033112Y-155333700D01*
X241048000Y-155408547D01*
X241048000Y-155472051D01*
X241048001Y-155472056D01*
X241048000Y-162410298D01*
X240421808Y-163036491D01*
X240201656Y-162992700D01*
X239909144Y-162992700D01*
X239475982Y-163078861D01*
X238984775Y-163407075D01*
X238785400Y-163705461D01*
X238586025Y-163407075D01*
X238094818Y-163078861D01*
X237661656Y-162992700D01*
X237535201Y-162992700D01*
X239752473Y-160775429D01*
X239815929Y-160733029D01*
X239983904Y-160481637D01*
X240028000Y-160259952D01*
X240028000Y-160259948D01*
X240042888Y-160185101D01*
X240028000Y-160110254D01*
X240028000Y-147625171D01*
X245998799Y-147625171D01*
X246026770Y-148175448D01*
X246183540Y-148553923D01*
X246424483Y-148621912D01*
X247216395Y-147830000D01*
X246424483Y-147038088D01*
X246183540Y-147106077D01*
X245998799Y-147625171D01*
X240028000Y-147625171D01*
X240028000Y-146293970D01*
X243391635Y-146293970D01*
X243551418Y-146612739D01*
X244342187Y-146922723D01*
X245191387Y-146906497D01*
X245900582Y-146612739D01*
X246060365Y-146293970D01*
X244726000Y-144959605D01*
X243391635Y-146293970D01*
X240028000Y-146293970D01*
X240028000Y-144396187D01*
X242583277Y-144396187D01*
X242599503Y-145245387D01*
X242893261Y-145954582D01*
X243212030Y-146114365D01*
X244546395Y-144780000D01*
X244905605Y-144780000D01*
X246239970Y-146114365D01*
X246558739Y-145954582D01*
X246868723Y-145163813D01*
X246852497Y-144314613D01*
X246558739Y-143605418D01*
X246239970Y-143445635D01*
X244905605Y-144780000D01*
X244546395Y-144780000D01*
X243212030Y-143445635D01*
X242893261Y-143605418D01*
X242583277Y-144396187D01*
X240028000Y-144396187D01*
X240028000Y-143508000D01*
X241275948Y-143508000D01*
X241350800Y-143522889D01*
X241425652Y-143508000D01*
X241647337Y-143463904D01*
X241898729Y-143295929D01*
X241966704Y-143194197D01*
X242292473Y-142868429D01*
X242355929Y-142826029D01*
X242412095Y-142741970D01*
X243391635Y-142741970D01*
X243522978Y-143004000D01*
X243391635Y-143266030D01*
X244726000Y-144600395D01*
X246060365Y-143266030D01*
X245929022Y-143004000D01*
X246060365Y-142741970D01*
X244726000Y-141407605D01*
X243391635Y-142741970D01*
X242412095Y-142741970D01*
X242523904Y-142574637D01*
X242568000Y-142352952D01*
X242568000Y-142352948D01*
X242582888Y-142278101D01*
X242568000Y-142203254D01*
X242568000Y-140522801D01*
X242800339Y-140290462D01*
X242583277Y-140844187D01*
X242599503Y-141693387D01*
X242893261Y-142402582D01*
X243212030Y-142562365D01*
X244546395Y-141228000D01*
X244905605Y-141228000D01*
X246239970Y-142562365D01*
X246558739Y-142402582D01*
X246868723Y-141611813D01*
X246852497Y-140762613D01*
X246558739Y-140053418D01*
X246239970Y-139893635D01*
X244905605Y-141228000D01*
X244546395Y-141228000D01*
X244532253Y-141213858D01*
X244711858Y-141034253D01*
X244726000Y-141048395D01*
X246060365Y-139714030D01*
X245900582Y-139395261D01*
X245109813Y-139085277D01*
X244260613Y-139101503D01*
X243797450Y-139293351D01*
X246452803Y-136637999D01*
X246467314Y-136637999D01*
X246221853Y-136883460D01*
G36*
X242893261Y-126333418D02*
X242583277Y-127124187D01*
X242599503Y-127973387D01*
X242893261Y-128682582D01*
X243212030Y-128842365D01*
X244546395Y-127508000D01*
X244532253Y-127493858D01*
X244711858Y-127314253D01*
X244726000Y-127328395D01*
X244740143Y-127314253D01*
X244919748Y-127493858D01*
X244905605Y-127508000D01*
X246239970Y-128842365D01*
X246558739Y-128682582D01*
X246868723Y-127891813D01*
X246852497Y-127042613D01*
X246558739Y-126333418D01*
X246264638Y-126186000D01*
X248718000Y-126186000D01*
X248718000Y-130098529D01*
X248608460Y-129834077D01*
X248367517Y-129766088D01*
X247575605Y-130558000D01*
X248367517Y-131349912D01*
X248608460Y-131281923D01*
X248718000Y-130974132D01*
X248718000Y-132670410D01*
X248570147Y-132313460D01*
X248180540Y-131923853D01*
X247965070Y-131834603D01*
X248119923Y-131770460D01*
X248187912Y-131529517D01*
X247396000Y-130737605D01*
X246604088Y-131529517D01*
X246672077Y-131770460D01*
X246838658Y-131829745D01*
X246611460Y-131923853D01*
X246221853Y-132313460D01*
X246011000Y-132822506D01*
X246011000Y-133373494D01*
X246221853Y-133882540D01*
X246452313Y-134113000D01*
X246221853Y-134343460D01*
X246011000Y-134852506D01*
X246011000Y-135128372D01*
X245841464Y-135162095D01*
X245590072Y-135330070D01*
X245547672Y-135393526D01*
X241323528Y-139617671D01*
X241260072Y-139660071D01*
X241217672Y-139723527D01*
X241217671Y-139723528D01*
X241092097Y-139911463D01*
X241033112Y-140208000D01*
X241048001Y-140282852D01*
X241048000Y-141963298D01*
X241023299Y-141988000D01*
X239723846Y-141988000D01*
X239648999Y-141973112D01*
X239574152Y-141988000D01*
X239574148Y-141988000D01*
X239352463Y-142032096D01*
X239101071Y-142200071D01*
X239058671Y-142263528D01*
X238962000Y-142360198D01*
X238962000Y-130353171D01*
X245998799Y-130353171D01*
X246026770Y-130903448D01*
X246183540Y-131281923D01*
X246424483Y-131349912D01*
X247216395Y-130558000D01*
X246424483Y-129766088D01*
X246183540Y-129834077D01*
X245998799Y-130353171D01*
X238962000Y-130353171D01*
X238962000Y-129021970D01*
X243391635Y-129021970D01*
X243551418Y-129340739D01*
X244342187Y-129650723D01*
X245191387Y-129634497D01*
X245307303Y-129586483D01*
X246604088Y-129586483D01*
X247396000Y-130378395D01*
X248187912Y-129586483D01*
X248119923Y-129345540D01*
X247600829Y-129160799D01*
X247050552Y-129188770D01*
X246672077Y-129345540D01*
X246604088Y-129586483D01*
X245307303Y-129586483D01*
X245900582Y-129340739D01*
X246060365Y-129021970D01*
X244726000Y-127687605D01*
X243391635Y-129021970D01*
X238962000Y-129021970D01*
X238962000Y-126186000D01*
X243187362Y-126186000D01*
X242893261Y-126333418D01*
X242893261Y-126333418D01*
G37*
X242893261Y-126333418D02*
X242583277Y-127124187D01*
X242599503Y-127973387D01*
X242893261Y-128682582D01*
X243212030Y-128842365D01*
X244546395Y-127508000D01*
X244532253Y-127493858D01*
X244711858Y-127314253D01*
X244726000Y-127328395D01*
X244740143Y-127314253D01*
X244919748Y-127493858D01*
X244905605Y-127508000D01*
X246239970Y-128842365D01*
X246558739Y-128682582D01*
X246868723Y-127891813D01*
X246852497Y-127042613D01*
X246558739Y-126333418D01*
X246264638Y-126186000D01*
X248718000Y-126186000D01*
X248718000Y-130098529D01*
X248608460Y-129834077D01*
X248367517Y-129766088D01*
X247575605Y-130558000D01*
X248367517Y-131349912D01*
X248608460Y-131281923D01*
X248718000Y-130974132D01*
X248718000Y-132670410D01*
X248570147Y-132313460D01*
X248180540Y-131923853D01*
X247965070Y-131834603D01*
X248119923Y-131770460D01*
X248187912Y-131529517D01*
X247396000Y-130737605D01*
X246604088Y-131529517D01*
X246672077Y-131770460D01*
X246838658Y-131829745D01*
X246611460Y-131923853D01*
X246221853Y-132313460D01*
X246011000Y-132822506D01*
X246011000Y-133373494D01*
X246221853Y-133882540D01*
X246452313Y-134113000D01*
X246221853Y-134343460D01*
X246011000Y-134852506D01*
X246011000Y-135128372D01*
X245841464Y-135162095D01*
X245590072Y-135330070D01*
X245547672Y-135393526D01*
X241323528Y-139617671D01*
X241260072Y-139660071D01*
X241217672Y-139723527D01*
X241217671Y-139723528D01*
X241092097Y-139911463D01*
X241033112Y-140208000D01*
X241048001Y-140282852D01*
X241048000Y-141963298D01*
X241023299Y-141988000D01*
X239723846Y-141988000D01*
X239648999Y-141973112D01*
X239574152Y-141988000D01*
X239574148Y-141988000D01*
X239352463Y-142032096D01*
X239101071Y-142200071D01*
X239058671Y-142263528D01*
X238962000Y-142360198D01*
X238962000Y-130353171D01*
X245998799Y-130353171D01*
X246026770Y-130903448D01*
X246183540Y-131281923D01*
X246424483Y-131349912D01*
X247216395Y-130558000D01*
X246424483Y-129766088D01*
X246183540Y-129834077D01*
X245998799Y-130353171D01*
X238962000Y-130353171D01*
X238962000Y-129021970D01*
X243391635Y-129021970D01*
X243551418Y-129340739D01*
X244342187Y-129650723D01*
X245191387Y-129634497D01*
X245307303Y-129586483D01*
X246604088Y-129586483D01*
X247396000Y-130378395D01*
X248187912Y-129586483D01*
X248119923Y-129345540D01*
X247600829Y-129160799D01*
X247050552Y-129188770D01*
X246672077Y-129345540D01*
X246604088Y-129586483D01*
X245307303Y-129586483D01*
X245900582Y-129340739D01*
X246060365Y-129021970D01*
X244726000Y-127687605D01*
X243391635Y-129021970D01*
X238962000Y-129021970D01*
X238962000Y-126186000D01*
X243187362Y-126186000D01*
X242893261Y-126333418D01*
G04 #@! TD*
M02*
