G04 #@! TF.GenerationSoftware,KiCad,Pcbnew,(5.0.0)*
G04 #@! TF.CreationDate,2018-12-19T21:55:00+01:00*
G04 #@! TF.ProjectId,main,6D61696E2E6B696361645F7063620000,rev?*
G04 #@! TF.SameCoordinates,Original*
G04 #@! TF.FileFunction,Copper,L2,Bot,Signal*
G04 #@! TF.FilePolarity,Positive*
%FSLAX46Y46*%
G04 Gerber Fmt 4.6, Leading zero omitted, Abs format (unit mm)*
G04 Created by KiCad (PCBNEW (5.0.0)) date 12/19/18 21:55:00*
%MOMM*%
%LPD*%
G01*
G04 APERTURE LIST*
G04 #@! TA.AperFunction,ComponentPad*
%ADD10O,1.700000X1.700000*%
G04 #@! TD*
G04 #@! TA.AperFunction,ComponentPad*
%ADD11R,1.700000X1.700000*%
G04 #@! TD*
G04 #@! TA.AperFunction,ComponentPad*
%ADD12C,1.500000*%
G04 #@! TD*
G04 #@! TA.AperFunction,ComponentPad*
%ADD13C,3.000000*%
G04 #@! TD*
G04 #@! TA.AperFunction,ViaPad*
%ADD14C,0.800000*%
G04 #@! TD*
G04 #@! TA.AperFunction,Conductor*
%ADD15C,0.250000*%
G04 #@! TD*
G04 #@! TA.AperFunction,Conductor*
%ADD16C,0.254000*%
G04 #@! TD*
G04 APERTURE END LIST*
D10*
G04 #@! TO.P,J3,6*
G04 #@! TO.N,USB2_DP*
X242595400Y-164477700D03*
G04 #@! TO.P,J3,5*
G04 #@! TO.N,USB2_DM*
X240055400Y-164477700D03*
G04 #@! TO.P,J3,4*
G04 #@! TO.N,USB1_DP*
X237515400Y-164477700D03*
G04 #@! TO.P,J3,3*
G04 #@! TO.N,USB1_DM*
X234975400Y-164477700D03*
G04 #@! TO.P,J3,2*
G04 #@! TO.N,GND*
X232435400Y-164477700D03*
D11*
G04 #@! TO.P,J3,1*
G04 #@! TO.N,+5V*
X229895400Y-164477700D03*
G04 #@! TD*
D12*
G04 #@! TO.P,J1,4*
G04 #@! TO.N,GND*
X247396000Y-130558000D03*
G04 #@! TO.P,J1,3*
G04 #@! TO.N,USB1_DP*
X247396000Y-133098000D03*
G04 #@! TO.P,J1,2*
G04 #@! TO.N,USB1_DM*
X247396000Y-135128000D03*
G04 #@! TO.P,J1,1*
G04 #@! TO.N,+5V*
X247396000Y-137668000D03*
D13*
G04 #@! TO.P,J1,5*
G04 #@! TO.N,GND*
X244726000Y-127508000D03*
X244726000Y-141228000D03*
G04 #@! TD*
G04 #@! TO.P,J2,5*
G04 #@! TO.N,GND*
X244726000Y-159770000D03*
X244726000Y-146050000D03*
D12*
G04 #@! TO.P,J2,1*
G04 #@! TO.N,+5V*
X247396000Y-156210000D03*
G04 #@! TO.P,J2,2*
G04 #@! TO.N,USB2_DM*
X247396000Y-153670000D03*
G04 #@! TO.P,J2,3*
G04 #@! TO.N,USB2_DP*
X247396000Y-151640000D03*
G04 #@! TO.P,J2,4*
G04 #@! TO.N,GND*
X247396000Y-149100000D03*
G04 #@! TD*
D14*
G04 #@! TO.N,GND*
X242824000Y-137668000D03*
X235712000Y-162052000D03*
X241300000Y-162052000D03*
X238760000Y-162560000D03*
G04 #@! TD*
D15*
G04 #@! TO.N,GND*
X244726000Y-139570000D02*
X244726000Y-141228000D01*
X242824000Y-137668000D02*
X244726000Y-139570000D01*
X244726000Y-141228000D02*
X244726000Y-144780000D01*
X247396000Y-147450000D02*
X247396000Y-147830000D01*
X244726000Y-144780000D02*
X247396000Y-147450000D01*
X238252000Y-162052000D02*
X238360001Y-162160001D01*
X238360001Y-162160001D02*
X238760000Y-162560000D01*
X235712000Y-162052000D02*
X238252000Y-162052000D01*
X247396000Y-147830000D02*
X247396000Y-148592000D01*
G04 #@! TO.N,USB1_DP*
X241300000Y-160839004D02*
X241300000Y-138118998D01*
X246335340Y-133098000D02*
X247396000Y-133098000D01*
X238765303Y-163627701D02*
X239485002Y-162908002D01*
X239485002Y-162908002D02*
X239485002Y-162654002D01*
X241300000Y-138118998D02*
X246320998Y-133098000D01*
X237515400Y-164477700D02*
X238365399Y-163627701D01*
X246320998Y-133098000D02*
X246335340Y-133098000D01*
X239485002Y-162654002D02*
X241300000Y-160839004D01*
X238365399Y-163627701D02*
X238765303Y-163627701D01*
G04 #@! TO.N,USB2_DP*
X247396000Y-151638000D02*
X247396000Y-151132000D01*
X244094000Y-151638000D02*
X247396000Y-151638000D01*
X242595400Y-164477700D02*
X242595400Y-153136600D01*
X242595400Y-153136600D02*
X244094000Y-151638000D01*
G04 #@! TD*
D16*
G04 #@! TO.N,GND*
G36*
X239522000Y-161505909D02*
X239567305Y-161496897D01*
X239000531Y-162063672D01*
X238937073Y-162106073D01*
X238769098Y-162357465D01*
X238725002Y-162579150D01*
X238725002Y-162579155D01*
X238721515Y-162596688D01*
X238450502Y-162867701D01*
X238440245Y-162867701D01*
X238365398Y-162852813D01*
X238290551Y-162867701D01*
X238290547Y-162867701D01*
X238068862Y-162911797D01*
X237882145Y-163036558D01*
X237661656Y-162992700D01*
X237369144Y-162992700D01*
X236935982Y-163078861D01*
X236444775Y-163407075D01*
X236245400Y-163705461D01*
X236046025Y-163407075D01*
X235554818Y-163078861D01*
X235121656Y-162992700D01*
X234829144Y-162992700D01*
X234395982Y-163078861D01*
X233904775Y-163407075D01*
X233691557Y-163726178D01*
X233630583Y-163596342D01*
X233202324Y-163206055D01*
X232792290Y-163036224D01*
X232562400Y-163157545D01*
X232562400Y-164350700D01*
X232582400Y-164350700D01*
X232582400Y-164604700D01*
X232562400Y-164604700D01*
X232562400Y-164624700D01*
X232308400Y-164624700D01*
X232308400Y-164604700D01*
X232288400Y-164604700D01*
X232288400Y-164350700D01*
X232308400Y-164350700D01*
X232308400Y-163157545D01*
X232078510Y-163036224D01*
X231668476Y-163206055D01*
X231364139Y-163483408D01*
X231343557Y-163379935D01*
X231203209Y-163169891D01*
X230993165Y-163029543D01*
X230745400Y-162980260D01*
X229045400Y-162980260D01*
X228802000Y-163028675D01*
X228802000Y-161492000D01*
X239452074Y-161492000D01*
X239522000Y-161505909D01*
X239522000Y-161505909D01*
G37*
X239522000Y-161505909D02*
X239567305Y-161496897D01*
X239000531Y-162063672D01*
X238937073Y-162106073D01*
X238769098Y-162357465D01*
X238725002Y-162579150D01*
X238725002Y-162579155D01*
X238721515Y-162596688D01*
X238450502Y-162867701D01*
X238440245Y-162867701D01*
X238365398Y-162852813D01*
X238290551Y-162867701D01*
X238290547Y-162867701D01*
X238068862Y-162911797D01*
X237882145Y-163036558D01*
X237661656Y-162992700D01*
X237369144Y-162992700D01*
X236935982Y-163078861D01*
X236444775Y-163407075D01*
X236245400Y-163705461D01*
X236046025Y-163407075D01*
X235554818Y-163078861D01*
X235121656Y-162992700D01*
X234829144Y-162992700D01*
X234395982Y-163078861D01*
X233904775Y-163407075D01*
X233691557Y-163726178D01*
X233630583Y-163596342D01*
X233202324Y-163206055D01*
X232792290Y-163036224D01*
X232562400Y-163157545D01*
X232562400Y-164350700D01*
X232582400Y-164350700D01*
X232582400Y-164604700D01*
X232562400Y-164604700D01*
X232562400Y-164624700D01*
X232308400Y-164624700D01*
X232308400Y-164604700D01*
X232288400Y-164604700D01*
X232288400Y-164350700D01*
X232308400Y-164350700D01*
X232308400Y-163157545D01*
X232078510Y-163036224D01*
X231668476Y-163206055D01*
X231364139Y-163483408D01*
X231343557Y-163379935D01*
X231203209Y-163169891D01*
X230993165Y-163029543D01*
X230745400Y-162980260D01*
X229045400Y-162980260D01*
X228802000Y-163028675D01*
X228802000Y-161492000D01*
X239452074Y-161492000D01*
X239522000Y-161505909D01*
G36*
X241835400Y-163199522D02*
X241524775Y-163407075D01*
X241325400Y-163705461D01*
X241126025Y-163407075D01*
X240634818Y-163078861D01*
X240241468Y-163000619D01*
X240245002Y-162982854D01*
X240245002Y-162982850D01*
X240248490Y-162965315D01*
X241784473Y-161429333D01*
X241835400Y-161395304D01*
X241835400Y-163199522D01*
X241835400Y-163199522D01*
G37*
X241835400Y-163199522D02*
X241524775Y-163407075D01*
X241325400Y-163705461D01*
X241126025Y-163407075D01*
X240634818Y-163078861D01*
X240241468Y-163000619D01*
X240245002Y-162982854D01*
X240245002Y-162982850D01*
X240248490Y-162965315D01*
X241784473Y-161429333D01*
X241835400Y-161395304D01*
X241835400Y-163199522D01*
G36*
X246221853Y-152424540D02*
X246452313Y-152655000D01*
X246221853Y-152885460D01*
X246011000Y-153394506D01*
X246011000Y-153945494D01*
X246221853Y-154454540D01*
X246611460Y-154844147D01*
X246842870Y-154940000D01*
X246611460Y-155035853D01*
X246221853Y-155425460D01*
X246011000Y-155934506D01*
X246011000Y-156485494D01*
X246221853Y-156994540D01*
X246611460Y-157384147D01*
X247120506Y-157595000D01*
X247671494Y-157595000D01*
X248180540Y-157384147D01*
X248570147Y-156994540D01*
X248718001Y-156637588D01*
X248718001Y-162612000D01*
X243909926Y-162612000D01*
X243840000Y-162598091D01*
X243770075Y-162612000D01*
X243770074Y-162612000D01*
X243562972Y-162653195D01*
X243355400Y-162791890D01*
X243355400Y-161320208D01*
X243391636Y-161283972D01*
X243551418Y-161602739D01*
X244342187Y-161912723D01*
X245191387Y-161896497D01*
X245900582Y-161602739D01*
X246060365Y-161283970D01*
X244726000Y-159949605D01*
X244711858Y-159963748D01*
X244532253Y-159784143D01*
X244546395Y-159770000D01*
X244905605Y-159770000D01*
X246239970Y-161104365D01*
X246558739Y-160944582D01*
X246868723Y-160153813D01*
X246852497Y-159304613D01*
X246558739Y-158595418D01*
X246239970Y-158435635D01*
X244905605Y-159770000D01*
X244546395Y-159770000D01*
X244532253Y-159755858D01*
X244711858Y-159576253D01*
X244726000Y-159590395D01*
X246060365Y-158256030D01*
X245900582Y-157937261D01*
X245109813Y-157627277D01*
X244260613Y-157643503D01*
X243551418Y-157937261D01*
X243391636Y-158256028D01*
X243355400Y-158219792D01*
X243355400Y-153451401D01*
X244408803Y-152398000D01*
X246210860Y-152398000D01*
X246221853Y-152424540D01*
X246221853Y-152424540D01*
G37*
X246221853Y-152424540D02*
X246452313Y-152655000D01*
X246221853Y-152885460D01*
X246011000Y-153394506D01*
X246011000Y-153945494D01*
X246221853Y-154454540D01*
X246611460Y-154844147D01*
X246842870Y-154940000D01*
X246611460Y-155035853D01*
X246221853Y-155425460D01*
X246011000Y-155934506D01*
X246011000Y-156485494D01*
X246221853Y-156994540D01*
X246611460Y-157384147D01*
X247120506Y-157595000D01*
X247671494Y-157595000D01*
X248180540Y-157384147D01*
X248570147Y-156994540D01*
X248718001Y-156637588D01*
X248718001Y-162612000D01*
X243909926Y-162612000D01*
X243840000Y-162598091D01*
X243770075Y-162612000D01*
X243770074Y-162612000D01*
X243562972Y-162653195D01*
X243355400Y-162791890D01*
X243355400Y-161320208D01*
X243391636Y-161283972D01*
X243551418Y-161602739D01*
X244342187Y-161912723D01*
X245191387Y-161896497D01*
X245900582Y-161602739D01*
X246060365Y-161283970D01*
X244726000Y-159949605D01*
X244711858Y-159963748D01*
X244532253Y-159784143D01*
X244546395Y-159770000D01*
X244905605Y-159770000D01*
X246239970Y-161104365D01*
X246558739Y-160944582D01*
X246868723Y-160153813D01*
X246852497Y-159304613D01*
X246558739Y-158595418D01*
X246239970Y-158435635D01*
X244905605Y-159770000D01*
X244546395Y-159770000D01*
X244532253Y-159755858D01*
X244711858Y-159576253D01*
X244726000Y-159590395D01*
X246060365Y-158256030D01*
X245900582Y-157937261D01*
X245109813Y-157627277D01*
X244260613Y-157643503D01*
X243551418Y-157937261D01*
X243391636Y-158256028D01*
X243355400Y-158219792D01*
X243355400Y-153451401D01*
X244408803Y-152398000D01*
X246210860Y-152398000D01*
X246221853Y-152424540D01*
G36*
X242893261Y-126333418D02*
X242583277Y-127124187D01*
X242599503Y-127973387D01*
X242893261Y-128682582D01*
X243212030Y-128842365D01*
X244546395Y-127508000D01*
X244532253Y-127493858D01*
X244711858Y-127314253D01*
X244726000Y-127328395D01*
X244740143Y-127314253D01*
X244919748Y-127493858D01*
X244905605Y-127508000D01*
X246239970Y-128842365D01*
X246558739Y-128682582D01*
X246868723Y-127891813D01*
X246852497Y-127042613D01*
X246558739Y-126333418D01*
X246264638Y-126186000D01*
X248718000Y-126186000D01*
X248718000Y-130098529D01*
X248608460Y-129834077D01*
X248367517Y-129766088D01*
X247575605Y-130558000D01*
X248367517Y-131349912D01*
X248608460Y-131281923D01*
X248718000Y-130974132D01*
X248718000Y-132670410D01*
X248570147Y-132313460D01*
X248180540Y-131923853D01*
X247965070Y-131834603D01*
X248119923Y-131770460D01*
X248187912Y-131529517D01*
X247396000Y-130737605D01*
X246604088Y-131529517D01*
X246672077Y-131770460D01*
X246838658Y-131829745D01*
X246611460Y-131923853D01*
X246221853Y-132313460D01*
X246208594Y-132345470D01*
X246024461Y-132382096D01*
X246024459Y-132382097D01*
X246024460Y-132382097D01*
X245836524Y-132507671D01*
X245836522Y-132507673D01*
X245773069Y-132550071D01*
X245730671Y-132613524D01*
X240815528Y-137528669D01*
X240752072Y-137571069D01*
X240709672Y-137634525D01*
X240709671Y-137634526D01*
X240584097Y-137822461D01*
X240525112Y-138118998D01*
X240540001Y-138193850D01*
X240540000Y-160524202D01*
X240236897Y-160827305D01*
X240245909Y-160782000D01*
X240232000Y-160712074D01*
X240232000Y-130353171D01*
X245998799Y-130353171D01*
X246026770Y-130903448D01*
X246183540Y-131281923D01*
X246424483Y-131349912D01*
X247216395Y-130558000D01*
X246424483Y-129766088D01*
X246183540Y-129834077D01*
X245998799Y-130353171D01*
X240232000Y-130353171D01*
X240232000Y-129021970D01*
X243391635Y-129021970D01*
X243551418Y-129340739D01*
X244342187Y-129650723D01*
X245191387Y-129634497D01*
X245307303Y-129586483D01*
X246604088Y-129586483D01*
X247396000Y-130378395D01*
X248187912Y-129586483D01*
X248119923Y-129345540D01*
X247600829Y-129160799D01*
X247050552Y-129188770D01*
X246672077Y-129345540D01*
X246604088Y-129586483D01*
X245307303Y-129586483D01*
X245900582Y-129340739D01*
X246060365Y-129021970D01*
X244726000Y-127687605D01*
X243391635Y-129021970D01*
X240232000Y-129021970D01*
X240232000Y-126186000D01*
X243187362Y-126186000D01*
X242893261Y-126333418D01*
X242893261Y-126333418D01*
G37*
X242893261Y-126333418D02*
X242583277Y-127124187D01*
X242599503Y-127973387D01*
X242893261Y-128682582D01*
X243212030Y-128842365D01*
X244546395Y-127508000D01*
X244532253Y-127493858D01*
X244711858Y-127314253D01*
X244726000Y-127328395D01*
X244740143Y-127314253D01*
X244919748Y-127493858D01*
X244905605Y-127508000D01*
X246239970Y-128842365D01*
X246558739Y-128682582D01*
X246868723Y-127891813D01*
X246852497Y-127042613D01*
X246558739Y-126333418D01*
X246264638Y-126186000D01*
X248718000Y-126186000D01*
X248718000Y-130098529D01*
X248608460Y-129834077D01*
X248367517Y-129766088D01*
X247575605Y-130558000D01*
X248367517Y-131349912D01*
X248608460Y-131281923D01*
X248718000Y-130974132D01*
X248718000Y-132670410D01*
X248570147Y-132313460D01*
X248180540Y-131923853D01*
X247965070Y-131834603D01*
X248119923Y-131770460D01*
X248187912Y-131529517D01*
X247396000Y-130737605D01*
X246604088Y-131529517D01*
X246672077Y-131770460D01*
X246838658Y-131829745D01*
X246611460Y-131923853D01*
X246221853Y-132313460D01*
X246208594Y-132345470D01*
X246024461Y-132382096D01*
X246024459Y-132382097D01*
X246024460Y-132382097D01*
X245836524Y-132507671D01*
X245836522Y-132507673D01*
X245773069Y-132550071D01*
X245730671Y-132613524D01*
X240815528Y-137528669D01*
X240752072Y-137571069D01*
X240709672Y-137634525D01*
X240709671Y-137634526D01*
X240584097Y-137822461D01*
X240525112Y-138118998D01*
X240540001Y-138193850D01*
X240540000Y-160524202D01*
X240236897Y-160827305D01*
X240245909Y-160782000D01*
X240232000Y-160712074D01*
X240232000Y-130353171D01*
X245998799Y-130353171D01*
X246026770Y-130903448D01*
X246183540Y-131281923D01*
X246424483Y-131349912D01*
X247216395Y-130558000D01*
X246424483Y-129766088D01*
X246183540Y-129834077D01*
X245998799Y-130353171D01*
X240232000Y-130353171D01*
X240232000Y-129021970D01*
X243391635Y-129021970D01*
X243551418Y-129340739D01*
X244342187Y-129650723D01*
X245191387Y-129634497D01*
X245307303Y-129586483D01*
X246604088Y-129586483D01*
X247396000Y-130378395D01*
X248187912Y-129586483D01*
X248119923Y-129345540D01*
X247600829Y-129160799D01*
X247050552Y-129188770D01*
X246672077Y-129345540D01*
X246604088Y-129586483D01*
X245307303Y-129586483D01*
X245900582Y-129340739D01*
X246060365Y-129021970D01*
X244726000Y-127687605D01*
X243391635Y-129021970D01*
X240232000Y-129021970D01*
X240232000Y-126186000D01*
X243187362Y-126186000D01*
X242893261Y-126333418D01*
G36*
X246452313Y-134113000D02*
X246221853Y-134343460D01*
X246011000Y-134852506D01*
X246011000Y-135403494D01*
X246221853Y-135912540D01*
X246611460Y-136302147D01*
X246842870Y-136398000D01*
X246611460Y-136493853D01*
X246221853Y-136883460D01*
X246011000Y-137392506D01*
X246011000Y-137943494D01*
X246221853Y-138452540D01*
X246611460Y-138842147D01*
X247120506Y-139053000D01*
X247671494Y-139053000D01*
X248180540Y-138842147D01*
X248570147Y-138452540D01*
X248718000Y-138095589D01*
X248718001Y-148640531D01*
X248608460Y-148376077D01*
X248367517Y-148308088D01*
X247575605Y-149100000D01*
X248367517Y-149891912D01*
X248608460Y-149823923D01*
X248718001Y-149516131D01*
X248718001Y-151212412D01*
X248570147Y-150855460D01*
X248180540Y-150465853D01*
X247965070Y-150376603D01*
X248119923Y-150312460D01*
X248187912Y-150071517D01*
X247396000Y-149279605D01*
X246604088Y-150071517D01*
X246672077Y-150312460D01*
X246838658Y-150371745D01*
X246611460Y-150465853D01*
X246221853Y-150855460D01*
X246212517Y-150878000D01*
X244168846Y-150878000D01*
X244093999Y-150863112D01*
X244019152Y-150878000D01*
X244019148Y-150878000D01*
X243797463Y-150922096D01*
X243797461Y-150922097D01*
X243797462Y-150922097D01*
X243609526Y-151047671D01*
X243609524Y-151047673D01*
X243546071Y-151090071D01*
X243503673Y-151153524D01*
X242110928Y-152546271D01*
X242060000Y-152580300D01*
X242060000Y-148895171D01*
X245998799Y-148895171D01*
X246026770Y-149445448D01*
X246183540Y-149823923D01*
X246424483Y-149891912D01*
X247216395Y-149100000D01*
X246424483Y-148308088D01*
X246183540Y-148376077D01*
X245998799Y-148895171D01*
X242060000Y-148895171D01*
X242060000Y-147563970D01*
X243391635Y-147563970D01*
X243551418Y-147882739D01*
X244342187Y-148192723D01*
X245191387Y-148176497D01*
X245307303Y-148128483D01*
X246604088Y-148128483D01*
X247396000Y-148920395D01*
X248187912Y-148128483D01*
X248119923Y-147887540D01*
X247600829Y-147702799D01*
X247050552Y-147730770D01*
X246672077Y-147887540D01*
X246604088Y-148128483D01*
X245307303Y-148128483D01*
X245900582Y-147882739D01*
X246060365Y-147563970D01*
X244726000Y-146229605D01*
X243391635Y-147563970D01*
X242060000Y-147563970D01*
X242060000Y-145666187D01*
X242583277Y-145666187D01*
X242599503Y-146515387D01*
X242893261Y-147224582D01*
X243212030Y-147384365D01*
X244546395Y-146050000D01*
X244905605Y-146050000D01*
X246239970Y-147384365D01*
X246558739Y-147224582D01*
X246868723Y-146433813D01*
X246852497Y-145584613D01*
X246558739Y-144875418D01*
X246239970Y-144715635D01*
X244905605Y-146050000D01*
X244546395Y-146050000D01*
X243212030Y-144715635D01*
X242893261Y-144875418D01*
X242583277Y-145666187D01*
X242060000Y-145666187D01*
X242060000Y-144536030D01*
X243391635Y-144536030D01*
X244726000Y-145870395D01*
X246060365Y-144536030D01*
X245900582Y-144217261D01*
X245109813Y-143907277D01*
X244260613Y-143923503D01*
X243551418Y-144217261D01*
X243391635Y-144536030D01*
X242060000Y-144536030D01*
X242060000Y-142741970D01*
X243391635Y-142741970D01*
X243551418Y-143060739D01*
X244342187Y-143370723D01*
X245191387Y-143354497D01*
X245900582Y-143060739D01*
X246060365Y-142741970D01*
X244726000Y-141407605D01*
X243391635Y-142741970D01*
X242060000Y-142741970D01*
X242060000Y-140844187D01*
X242583277Y-140844187D01*
X242599503Y-141693387D01*
X242893261Y-142402582D01*
X243212030Y-142562365D01*
X244546395Y-141228000D01*
X244905605Y-141228000D01*
X246239970Y-142562365D01*
X246558739Y-142402582D01*
X246868723Y-141611813D01*
X246852497Y-140762613D01*
X246558739Y-140053418D01*
X246239970Y-139893635D01*
X244905605Y-141228000D01*
X244546395Y-141228000D01*
X243212030Y-139893635D01*
X242893261Y-140053418D01*
X242583277Y-140844187D01*
X242060000Y-140844187D01*
X242060000Y-139714030D01*
X243391635Y-139714030D01*
X244726000Y-141048395D01*
X246060365Y-139714030D01*
X245900582Y-139395261D01*
X245109813Y-139085277D01*
X244260613Y-139101503D01*
X243551418Y-139395261D01*
X243391635Y-139714030D01*
X242060000Y-139714030D01*
X242060000Y-138433799D01*
X246416557Y-134077244D01*
X246452313Y-134113000D01*
X246452313Y-134113000D01*
G37*
X246452313Y-134113000D02*
X246221853Y-134343460D01*
X246011000Y-134852506D01*
X246011000Y-135403494D01*
X246221853Y-135912540D01*
X246611460Y-136302147D01*
X246842870Y-136398000D01*
X246611460Y-136493853D01*
X246221853Y-136883460D01*
X246011000Y-137392506D01*
X246011000Y-137943494D01*
X246221853Y-138452540D01*
X246611460Y-138842147D01*
X247120506Y-139053000D01*
X247671494Y-139053000D01*
X248180540Y-138842147D01*
X248570147Y-138452540D01*
X248718000Y-138095589D01*
X248718001Y-148640531D01*
X248608460Y-148376077D01*
X248367517Y-148308088D01*
X247575605Y-149100000D01*
X248367517Y-149891912D01*
X248608460Y-149823923D01*
X248718001Y-149516131D01*
X248718001Y-151212412D01*
X248570147Y-150855460D01*
X248180540Y-150465853D01*
X247965070Y-150376603D01*
X248119923Y-150312460D01*
X248187912Y-150071517D01*
X247396000Y-149279605D01*
X246604088Y-150071517D01*
X246672077Y-150312460D01*
X246838658Y-150371745D01*
X246611460Y-150465853D01*
X246221853Y-150855460D01*
X246212517Y-150878000D01*
X244168846Y-150878000D01*
X244093999Y-150863112D01*
X244019152Y-150878000D01*
X244019148Y-150878000D01*
X243797463Y-150922096D01*
X243797461Y-150922097D01*
X243797462Y-150922097D01*
X243609526Y-151047671D01*
X243609524Y-151047673D01*
X243546071Y-151090071D01*
X243503673Y-151153524D01*
X242110928Y-152546271D01*
X242060000Y-152580300D01*
X242060000Y-148895171D01*
X245998799Y-148895171D01*
X246026770Y-149445448D01*
X246183540Y-149823923D01*
X246424483Y-149891912D01*
X247216395Y-149100000D01*
X246424483Y-148308088D01*
X246183540Y-148376077D01*
X245998799Y-148895171D01*
X242060000Y-148895171D01*
X242060000Y-147563970D01*
X243391635Y-147563970D01*
X243551418Y-147882739D01*
X244342187Y-148192723D01*
X245191387Y-148176497D01*
X245307303Y-148128483D01*
X246604088Y-148128483D01*
X247396000Y-148920395D01*
X248187912Y-148128483D01*
X248119923Y-147887540D01*
X247600829Y-147702799D01*
X247050552Y-147730770D01*
X246672077Y-147887540D01*
X246604088Y-148128483D01*
X245307303Y-148128483D01*
X245900582Y-147882739D01*
X246060365Y-147563970D01*
X244726000Y-146229605D01*
X243391635Y-147563970D01*
X242060000Y-147563970D01*
X242060000Y-145666187D01*
X242583277Y-145666187D01*
X242599503Y-146515387D01*
X242893261Y-147224582D01*
X243212030Y-147384365D01*
X244546395Y-146050000D01*
X244905605Y-146050000D01*
X246239970Y-147384365D01*
X246558739Y-147224582D01*
X246868723Y-146433813D01*
X246852497Y-145584613D01*
X246558739Y-144875418D01*
X246239970Y-144715635D01*
X244905605Y-146050000D01*
X244546395Y-146050000D01*
X243212030Y-144715635D01*
X242893261Y-144875418D01*
X242583277Y-145666187D01*
X242060000Y-145666187D01*
X242060000Y-144536030D01*
X243391635Y-144536030D01*
X244726000Y-145870395D01*
X246060365Y-144536030D01*
X245900582Y-144217261D01*
X245109813Y-143907277D01*
X244260613Y-143923503D01*
X243551418Y-144217261D01*
X243391635Y-144536030D01*
X242060000Y-144536030D01*
X242060000Y-142741970D01*
X243391635Y-142741970D01*
X243551418Y-143060739D01*
X244342187Y-143370723D01*
X245191387Y-143354497D01*
X245900582Y-143060739D01*
X246060365Y-142741970D01*
X244726000Y-141407605D01*
X243391635Y-142741970D01*
X242060000Y-142741970D01*
X242060000Y-140844187D01*
X242583277Y-140844187D01*
X242599503Y-141693387D01*
X242893261Y-142402582D01*
X243212030Y-142562365D01*
X244546395Y-141228000D01*
X244905605Y-141228000D01*
X246239970Y-142562365D01*
X246558739Y-142402582D01*
X246868723Y-141611813D01*
X246852497Y-140762613D01*
X246558739Y-140053418D01*
X246239970Y-139893635D01*
X244905605Y-141228000D01*
X244546395Y-141228000D01*
X243212030Y-139893635D01*
X242893261Y-140053418D01*
X242583277Y-140844187D01*
X242060000Y-140844187D01*
X242060000Y-139714030D01*
X243391635Y-139714030D01*
X244726000Y-141048395D01*
X246060365Y-139714030D01*
X245900582Y-139395261D01*
X245109813Y-139085277D01*
X244260613Y-139101503D01*
X243551418Y-139395261D01*
X243391635Y-139714030D01*
X242060000Y-139714030D01*
X242060000Y-138433799D01*
X246416557Y-134077244D01*
X246452313Y-134113000D01*
G04 #@! TD*
M02*
