G04 #@! TF.GenerationSoftware,KiCad,Pcbnew,(5.0.0)*
G04 #@! TF.CreationDate,2018-12-18T18:11:05+01:00*
G04 #@! TF.ProjectId,main,6D61696E2E6B696361645F7063620000,rev?*
G04 #@! TF.SameCoordinates,Original*
G04 #@! TF.FileFunction,Copper,L2,Bot,Signal*
G04 #@! TF.FilePolarity,Positive*
%FSLAX46Y46*%
G04 Gerber Fmt 4.6, Leading zero omitted, Abs format (unit mm)*
G04 Created by KiCad (PCBNEW (5.0.0)) date 12/18/18 18:11:05*
%MOMM*%
%LPD*%
G01*
G04 APERTURE LIST*
G04 #@! TA.AperFunction,ComponentPad*
%ADD10O,1.700000X1.700000*%
G04 #@! TD*
G04 #@! TA.AperFunction,ComponentPad*
%ADD11R,1.700000X1.700000*%
G04 #@! TD*
G04 #@! TA.AperFunction,ComponentPad*
%ADD12C,1.500000*%
G04 #@! TD*
G04 #@! TA.AperFunction,ComponentPad*
%ADD13C,3.000000*%
G04 #@! TD*
G04 #@! TA.AperFunction,ViaPad*
%ADD14C,0.800000*%
G04 #@! TD*
G04 #@! TA.AperFunction,Conductor*
%ADD15C,0.250000*%
G04 #@! TD*
G04 #@! TA.AperFunction,Conductor*
%ADD16C,0.254000*%
G04 #@! TD*
G04 APERTURE END LIST*
D10*
G04 #@! TO.P,J3,6*
G04 #@! TO.N,USB2_DP*
X242595400Y-164477700D03*
G04 #@! TO.P,J3,5*
G04 #@! TO.N,USB2_DM*
X240055400Y-164477700D03*
G04 #@! TO.P,J3,4*
G04 #@! TO.N,USB1_DP*
X237515400Y-164477700D03*
G04 #@! TO.P,J3,3*
G04 #@! TO.N,USB1_DM*
X234975400Y-164477700D03*
G04 #@! TO.P,J3,2*
G04 #@! TO.N,GND*
X232435400Y-164477700D03*
D11*
G04 #@! TO.P,J3,1*
G04 #@! TO.N,+5V*
X229895400Y-164477700D03*
G04 #@! TD*
D12*
G04 #@! TO.P,J1,4*
G04 #@! TO.N,GND*
X247396000Y-130558000D03*
G04 #@! TO.P,J1,3*
G04 #@! TO.N,USB1_DP*
X247396000Y-133098000D03*
G04 #@! TO.P,J1,2*
G04 #@! TO.N,USB1_DM*
X247396000Y-135128000D03*
G04 #@! TO.P,J1,1*
G04 #@! TO.N,+5V*
X247396000Y-137668000D03*
D13*
G04 #@! TO.P,J1,5*
G04 #@! TO.N,GND*
X244726000Y-127508000D03*
X244726000Y-141228000D03*
G04 #@! TD*
G04 #@! TO.P,J2,5*
G04 #@! TO.N,GND*
X244726000Y-158500000D03*
X244726000Y-144780000D03*
D12*
G04 #@! TO.P,J2,1*
G04 #@! TO.N,+5V*
X247396000Y-154940000D03*
G04 #@! TO.P,J2,2*
G04 #@! TO.N,USB2_DM*
X247396000Y-152400000D03*
G04 #@! TO.P,J2,3*
G04 #@! TO.N,USB2_DP*
X247396000Y-150370000D03*
G04 #@! TO.P,J2,4*
G04 #@! TO.N,GND*
X247396000Y-147830000D03*
G04 #@! TD*
D14*
G04 #@! TO.N,GND*
X242824000Y-137668000D03*
X235712000Y-162052000D03*
X238760000Y-162052000D03*
X240792000Y-162052000D03*
G04 #@! TD*
D15*
G04 #@! TO.N,GND*
X244726000Y-139570000D02*
X244726000Y-141228000D01*
X242824000Y-137668000D02*
X244726000Y-139570000D01*
X244726000Y-141228000D02*
X244726000Y-144780000D01*
X247396000Y-147450000D02*
X247396000Y-147830000D01*
X244726000Y-144780000D02*
X247396000Y-147450000D01*
X235712000Y-162052000D02*
X238760000Y-162052000D01*
G04 #@! TO.N,USB1_DP*
X246335340Y-133098000D02*
X247396000Y-133098000D01*
X239776000Y-162217100D02*
X239776000Y-161544000D01*
X239776000Y-161544000D02*
X240284000Y-161036000D01*
X240284000Y-161036000D02*
X240284000Y-139134998D01*
X237515400Y-164477700D02*
X239776000Y-162217100D01*
X240284000Y-139134998D02*
X246320998Y-133098000D01*
X246320998Y-133098000D02*
X246335340Y-133098000D01*
G04 #@! TO.N,USB2_DP*
X245362000Y-150370000D02*
X247396000Y-150370000D01*
X242595400Y-164477700D02*
X242595400Y-153136600D01*
X242595400Y-153136600D02*
X245362000Y-150370000D01*
G04 #@! TD*
D16*
G04 #@! TO.N,GND*
G36*
X246221853Y-151154540D02*
X246452313Y-151385000D01*
X246221853Y-151615460D01*
X246011000Y-152124506D01*
X246011000Y-152675494D01*
X246221853Y-153184540D01*
X246611460Y-153574147D01*
X246842870Y-153670000D01*
X246611460Y-153765853D01*
X246221853Y-154155460D01*
X246011000Y-154664506D01*
X246011000Y-155215494D01*
X246221853Y-155724540D01*
X246611460Y-156114147D01*
X247120506Y-156325000D01*
X247671494Y-156325000D01*
X248180540Y-156114147D01*
X248570147Y-155724540D01*
X248718001Y-155367588D01*
X248718001Y-165406000D01*
X243761124Y-165406000D01*
X243994239Y-165057118D01*
X244109492Y-164477700D01*
X243994239Y-163898282D01*
X243666025Y-163407075D01*
X243355400Y-163199522D01*
X243355400Y-160050208D01*
X243391636Y-160013972D01*
X243551418Y-160332739D01*
X244342187Y-160642723D01*
X245191387Y-160626497D01*
X245900582Y-160332739D01*
X246060365Y-160013970D01*
X244726000Y-158679605D01*
X244711858Y-158693748D01*
X244532253Y-158514143D01*
X244546395Y-158500000D01*
X244905605Y-158500000D01*
X246239970Y-159834365D01*
X246558739Y-159674582D01*
X246868723Y-158883813D01*
X246852497Y-158034613D01*
X246558739Y-157325418D01*
X246239970Y-157165635D01*
X244905605Y-158500000D01*
X244546395Y-158500000D01*
X244532253Y-158485858D01*
X244711858Y-158306253D01*
X244726000Y-158320395D01*
X246060365Y-156986030D01*
X245900582Y-156667261D01*
X245109813Y-156357277D01*
X244260613Y-156373503D01*
X243551418Y-156667261D01*
X243391636Y-156986028D01*
X243355400Y-156949792D01*
X243355400Y-153451401D01*
X245676802Y-151130000D01*
X246211688Y-151130000D01*
X246221853Y-151154540D01*
X246221853Y-151154540D01*
G37*
X246221853Y-151154540D02*
X246452313Y-151385000D01*
X246221853Y-151615460D01*
X246011000Y-152124506D01*
X246011000Y-152675494D01*
X246221853Y-153184540D01*
X246611460Y-153574147D01*
X246842870Y-153670000D01*
X246611460Y-153765853D01*
X246221853Y-154155460D01*
X246011000Y-154664506D01*
X246011000Y-155215494D01*
X246221853Y-155724540D01*
X246611460Y-156114147D01*
X247120506Y-156325000D01*
X247671494Y-156325000D01*
X248180540Y-156114147D01*
X248570147Y-155724540D01*
X248718001Y-155367588D01*
X248718001Y-165406000D01*
X243761124Y-165406000D01*
X243994239Y-165057118D01*
X244109492Y-164477700D01*
X243994239Y-163898282D01*
X243666025Y-163407075D01*
X243355400Y-163199522D01*
X243355400Y-160050208D01*
X243391636Y-160013972D01*
X243551418Y-160332739D01*
X244342187Y-160642723D01*
X245191387Y-160626497D01*
X245900582Y-160332739D01*
X246060365Y-160013970D01*
X244726000Y-158679605D01*
X244711858Y-158693748D01*
X244532253Y-158514143D01*
X244546395Y-158500000D01*
X244905605Y-158500000D01*
X246239970Y-159834365D01*
X246558739Y-159674582D01*
X246868723Y-158883813D01*
X246852497Y-158034613D01*
X246558739Y-157325418D01*
X246239970Y-157165635D01*
X244905605Y-158500000D01*
X244546395Y-158500000D01*
X244532253Y-158485858D01*
X244711858Y-158306253D01*
X244726000Y-158320395D01*
X246060365Y-156986030D01*
X245900582Y-156667261D01*
X245109813Y-156357277D01*
X244260613Y-156373503D01*
X243551418Y-156667261D01*
X243391636Y-156986028D01*
X243355400Y-156949792D01*
X243355400Y-153451401D01*
X245676802Y-151130000D01*
X246211688Y-151130000D01*
X246221853Y-151154540D01*
G36*
X242893261Y-126333418D02*
X242583277Y-127124187D01*
X242599503Y-127973387D01*
X242893261Y-128682582D01*
X243212030Y-128842365D01*
X244546395Y-127508000D01*
X244532253Y-127493858D01*
X244711858Y-127314253D01*
X244726000Y-127328395D01*
X244740143Y-127314253D01*
X244919748Y-127493858D01*
X244905605Y-127508000D01*
X246239970Y-128842365D01*
X246558739Y-128682582D01*
X246868723Y-127891813D01*
X246852497Y-127042613D01*
X246558739Y-126333418D01*
X246264638Y-126186000D01*
X248718000Y-126186000D01*
X248718000Y-130098529D01*
X248608460Y-129834077D01*
X248367517Y-129766088D01*
X247575605Y-130558000D01*
X248367517Y-131349912D01*
X248608460Y-131281923D01*
X248718000Y-130974132D01*
X248718000Y-132670410D01*
X248570147Y-132313460D01*
X248180540Y-131923853D01*
X247965070Y-131834603D01*
X248119923Y-131770460D01*
X248187912Y-131529517D01*
X247396000Y-130737605D01*
X246604088Y-131529517D01*
X246672077Y-131770460D01*
X246838658Y-131829745D01*
X246611460Y-131923853D01*
X246221853Y-132313460D01*
X246208594Y-132345470D01*
X246024461Y-132382096D01*
X246024459Y-132382097D01*
X246024460Y-132382097D01*
X245836524Y-132507671D01*
X245836522Y-132507673D01*
X245773069Y-132550071D01*
X245730671Y-132613524D01*
X239799528Y-138544669D01*
X239736072Y-138587069D01*
X239693672Y-138650525D01*
X239693671Y-138650526D01*
X239568097Y-138838461D01*
X239509112Y-139134998D01*
X239524001Y-139209850D01*
X239524000Y-160721198D01*
X239291527Y-160953672D01*
X239228072Y-160996071D01*
X239185672Y-161059527D01*
X239185671Y-161059528D01*
X239093946Y-161196805D01*
X239060097Y-161247463D01*
X239016000Y-161469148D01*
X239016000Y-161469153D01*
X239001112Y-161544000D01*
X239016000Y-161618847D01*
X239016000Y-161902298D01*
X237881808Y-163036491D01*
X237661656Y-162992700D01*
X237369144Y-162992700D01*
X236935982Y-163078861D01*
X236444775Y-163407075D01*
X236245400Y-163705461D01*
X236046025Y-163407075D01*
X235554818Y-163078861D01*
X235121656Y-162992700D01*
X234829144Y-162992700D01*
X234395982Y-163078861D01*
X233904775Y-163407075D01*
X233691557Y-163726178D01*
X233630583Y-163596342D01*
X233202324Y-163206055D01*
X232792290Y-163036224D01*
X232562400Y-163157545D01*
X232562400Y-164350700D01*
X232582400Y-164350700D01*
X232582400Y-164604700D01*
X232562400Y-164604700D01*
X232562400Y-164624700D01*
X232308400Y-164624700D01*
X232308400Y-164604700D01*
X232288400Y-164604700D01*
X232288400Y-164350700D01*
X232308400Y-164350700D01*
X232308400Y-163157545D01*
X232078510Y-163036224D01*
X231668476Y-163206055D01*
X231364139Y-163483408D01*
X231343557Y-163379935D01*
X231203209Y-163169891D01*
X230993165Y-163029543D01*
X230745400Y-162980260D01*
X229045400Y-162980260D01*
X228802000Y-163028675D01*
X228802000Y-161238000D01*
X238182074Y-161238000D01*
X238252000Y-161251909D01*
X238321925Y-161238000D01*
X238321926Y-161238000D01*
X238529028Y-161196805D01*
X238763881Y-161039881D01*
X238920805Y-160805028D01*
X238975909Y-160528000D01*
X238962000Y-160458074D01*
X238962000Y-130353171D01*
X245998799Y-130353171D01*
X246026770Y-130903448D01*
X246183540Y-131281923D01*
X246424483Y-131349912D01*
X247216395Y-130558000D01*
X246424483Y-129766088D01*
X246183540Y-129834077D01*
X245998799Y-130353171D01*
X238962000Y-130353171D01*
X238962000Y-129021970D01*
X243391635Y-129021970D01*
X243551418Y-129340739D01*
X244342187Y-129650723D01*
X245191387Y-129634497D01*
X245307303Y-129586483D01*
X246604088Y-129586483D01*
X247396000Y-130378395D01*
X248187912Y-129586483D01*
X248119923Y-129345540D01*
X247600829Y-129160799D01*
X247050552Y-129188770D01*
X246672077Y-129345540D01*
X246604088Y-129586483D01*
X245307303Y-129586483D01*
X245900582Y-129340739D01*
X246060365Y-129021970D01*
X244726000Y-127687605D01*
X243391635Y-129021970D01*
X238962000Y-129021970D01*
X238962000Y-126186000D01*
X243187362Y-126186000D01*
X242893261Y-126333418D01*
X242893261Y-126333418D01*
G37*
X242893261Y-126333418D02*
X242583277Y-127124187D01*
X242599503Y-127973387D01*
X242893261Y-128682582D01*
X243212030Y-128842365D01*
X244546395Y-127508000D01*
X244532253Y-127493858D01*
X244711858Y-127314253D01*
X244726000Y-127328395D01*
X244740143Y-127314253D01*
X244919748Y-127493858D01*
X244905605Y-127508000D01*
X246239970Y-128842365D01*
X246558739Y-128682582D01*
X246868723Y-127891813D01*
X246852497Y-127042613D01*
X246558739Y-126333418D01*
X246264638Y-126186000D01*
X248718000Y-126186000D01*
X248718000Y-130098529D01*
X248608460Y-129834077D01*
X248367517Y-129766088D01*
X247575605Y-130558000D01*
X248367517Y-131349912D01*
X248608460Y-131281923D01*
X248718000Y-130974132D01*
X248718000Y-132670410D01*
X248570147Y-132313460D01*
X248180540Y-131923853D01*
X247965070Y-131834603D01*
X248119923Y-131770460D01*
X248187912Y-131529517D01*
X247396000Y-130737605D01*
X246604088Y-131529517D01*
X246672077Y-131770460D01*
X246838658Y-131829745D01*
X246611460Y-131923853D01*
X246221853Y-132313460D01*
X246208594Y-132345470D01*
X246024461Y-132382096D01*
X246024459Y-132382097D01*
X246024460Y-132382097D01*
X245836524Y-132507671D01*
X245836522Y-132507673D01*
X245773069Y-132550071D01*
X245730671Y-132613524D01*
X239799528Y-138544669D01*
X239736072Y-138587069D01*
X239693672Y-138650525D01*
X239693671Y-138650526D01*
X239568097Y-138838461D01*
X239509112Y-139134998D01*
X239524001Y-139209850D01*
X239524000Y-160721198D01*
X239291527Y-160953672D01*
X239228072Y-160996071D01*
X239185672Y-161059527D01*
X239185671Y-161059528D01*
X239093946Y-161196805D01*
X239060097Y-161247463D01*
X239016000Y-161469148D01*
X239016000Y-161469153D01*
X239001112Y-161544000D01*
X239016000Y-161618847D01*
X239016000Y-161902298D01*
X237881808Y-163036491D01*
X237661656Y-162992700D01*
X237369144Y-162992700D01*
X236935982Y-163078861D01*
X236444775Y-163407075D01*
X236245400Y-163705461D01*
X236046025Y-163407075D01*
X235554818Y-163078861D01*
X235121656Y-162992700D01*
X234829144Y-162992700D01*
X234395982Y-163078861D01*
X233904775Y-163407075D01*
X233691557Y-163726178D01*
X233630583Y-163596342D01*
X233202324Y-163206055D01*
X232792290Y-163036224D01*
X232562400Y-163157545D01*
X232562400Y-164350700D01*
X232582400Y-164350700D01*
X232582400Y-164604700D01*
X232562400Y-164604700D01*
X232562400Y-164624700D01*
X232308400Y-164624700D01*
X232308400Y-164604700D01*
X232288400Y-164604700D01*
X232288400Y-164350700D01*
X232308400Y-164350700D01*
X232308400Y-163157545D01*
X232078510Y-163036224D01*
X231668476Y-163206055D01*
X231364139Y-163483408D01*
X231343557Y-163379935D01*
X231203209Y-163169891D01*
X230993165Y-163029543D01*
X230745400Y-162980260D01*
X229045400Y-162980260D01*
X228802000Y-163028675D01*
X228802000Y-161238000D01*
X238182074Y-161238000D01*
X238252000Y-161251909D01*
X238321925Y-161238000D01*
X238321926Y-161238000D01*
X238529028Y-161196805D01*
X238763881Y-161039881D01*
X238920805Y-160805028D01*
X238975909Y-160528000D01*
X238962000Y-160458074D01*
X238962000Y-130353171D01*
X245998799Y-130353171D01*
X246026770Y-130903448D01*
X246183540Y-131281923D01*
X246424483Y-131349912D01*
X247216395Y-130558000D01*
X246424483Y-129766088D01*
X246183540Y-129834077D01*
X245998799Y-130353171D01*
X238962000Y-130353171D01*
X238962000Y-129021970D01*
X243391635Y-129021970D01*
X243551418Y-129340739D01*
X244342187Y-129650723D01*
X245191387Y-129634497D01*
X245307303Y-129586483D01*
X246604088Y-129586483D01*
X247396000Y-130378395D01*
X248187912Y-129586483D01*
X248119923Y-129345540D01*
X247600829Y-129160799D01*
X247050552Y-129188770D01*
X246672077Y-129345540D01*
X246604088Y-129586483D01*
X245307303Y-129586483D01*
X245900582Y-129340739D01*
X246060365Y-129021970D01*
X244726000Y-127687605D01*
X243391635Y-129021970D01*
X238962000Y-129021970D01*
X238962000Y-126186000D01*
X243187362Y-126186000D01*
X242893261Y-126333418D01*
G36*
X246452313Y-134113000D02*
X246221853Y-134343460D01*
X246011000Y-134852506D01*
X246011000Y-135403494D01*
X246221853Y-135912540D01*
X246611460Y-136302147D01*
X246842870Y-136398000D01*
X246611460Y-136493853D01*
X246221853Y-136883460D01*
X246011000Y-137392506D01*
X246011000Y-137943494D01*
X246221853Y-138452540D01*
X246611460Y-138842147D01*
X247120506Y-139053000D01*
X247671494Y-139053000D01*
X248180540Y-138842147D01*
X248570147Y-138452540D01*
X248718000Y-138095589D01*
X248718001Y-147370530D01*
X248608460Y-147106077D01*
X248367517Y-147038088D01*
X247575605Y-147830000D01*
X248367517Y-148621912D01*
X248608460Y-148553923D01*
X248718001Y-148246131D01*
X248718001Y-149942411D01*
X248570147Y-149585460D01*
X248180540Y-149195853D01*
X247965070Y-149106603D01*
X248119923Y-149042460D01*
X248187912Y-148801517D01*
X247396000Y-148009605D01*
X246604088Y-148801517D01*
X246672077Y-149042460D01*
X246838658Y-149101745D01*
X246611460Y-149195853D01*
X246221853Y-149585460D01*
X246211688Y-149610000D01*
X245436846Y-149610000D01*
X245361999Y-149595112D01*
X245287152Y-149610000D01*
X245287148Y-149610000D01*
X245065463Y-149654096D01*
X244814071Y-149822071D01*
X244771671Y-149885527D01*
X242110928Y-152546271D01*
X242047472Y-152588671D01*
X242005072Y-152652127D01*
X242005071Y-152652128D01*
X241879497Y-152840063D01*
X241820512Y-153136600D01*
X241835401Y-153211452D01*
X241835400Y-163199522D01*
X241524775Y-163407075D01*
X241325400Y-163705461D01*
X241126025Y-163407075D01*
X240634818Y-163078861D01*
X240201656Y-162992700D01*
X240075202Y-162992700D01*
X240260473Y-162807429D01*
X240323929Y-162765029D01*
X240491904Y-162513637D01*
X240536000Y-162291952D01*
X240536000Y-162291948D01*
X240550888Y-162217101D01*
X240536000Y-162142254D01*
X240536000Y-161858802D01*
X240768475Y-161626327D01*
X240831929Y-161583929D01*
X240874327Y-161520476D01*
X240874329Y-161520474D01*
X240999903Y-161332538D01*
X240999904Y-161332537D01*
X241044000Y-161110852D01*
X241044000Y-161110848D01*
X241058888Y-161036001D01*
X241044000Y-160961154D01*
X241044000Y-147625171D01*
X245998799Y-147625171D01*
X246026770Y-148175448D01*
X246183540Y-148553923D01*
X246424483Y-148621912D01*
X247216395Y-147830000D01*
X246424483Y-147038088D01*
X246183540Y-147106077D01*
X245998799Y-147625171D01*
X241044000Y-147625171D01*
X241044000Y-146293970D01*
X243391635Y-146293970D01*
X243551418Y-146612739D01*
X244342187Y-146922723D01*
X245191387Y-146906497D01*
X245307303Y-146858483D01*
X246604088Y-146858483D01*
X247396000Y-147650395D01*
X248187912Y-146858483D01*
X248119923Y-146617540D01*
X247600829Y-146432799D01*
X247050552Y-146460770D01*
X246672077Y-146617540D01*
X246604088Y-146858483D01*
X245307303Y-146858483D01*
X245900582Y-146612739D01*
X246060365Y-146293970D01*
X244726000Y-144959605D01*
X243391635Y-146293970D01*
X241044000Y-146293970D01*
X241044000Y-144396187D01*
X242583277Y-144396187D01*
X242599503Y-145245387D01*
X242893261Y-145954582D01*
X243212030Y-146114365D01*
X244546395Y-144780000D01*
X244905605Y-144780000D01*
X246239970Y-146114365D01*
X246558739Y-145954582D01*
X246868723Y-145163813D01*
X246852497Y-144314613D01*
X246558739Y-143605418D01*
X246239970Y-143445635D01*
X244905605Y-144780000D01*
X244546395Y-144780000D01*
X243212030Y-143445635D01*
X242893261Y-143605418D01*
X242583277Y-144396187D01*
X241044000Y-144396187D01*
X241044000Y-142741970D01*
X243391635Y-142741970D01*
X243522978Y-143004000D01*
X243391635Y-143266030D01*
X244726000Y-144600395D01*
X246060365Y-143266030D01*
X245929022Y-143004000D01*
X246060365Y-142741970D01*
X244726000Y-141407605D01*
X243391635Y-142741970D01*
X241044000Y-142741970D01*
X241044000Y-140844187D01*
X242583277Y-140844187D01*
X242599503Y-141693387D01*
X242893261Y-142402582D01*
X243212030Y-142562365D01*
X244546395Y-141228000D01*
X244905605Y-141228000D01*
X246239970Y-142562365D01*
X246558739Y-142402582D01*
X246868723Y-141611813D01*
X246852497Y-140762613D01*
X246558739Y-140053418D01*
X246239970Y-139893635D01*
X244905605Y-141228000D01*
X244546395Y-141228000D01*
X243212030Y-139893635D01*
X242893261Y-140053418D01*
X242583277Y-140844187D01*
X241044000Y-140844187D01*
X241044000Y-139714030D01*
X243391635Y-139714030D01*
X244726000Y-141048395D01*
X246060365Y-139714030D01*
X245900582Y-139395261D01*
X245109813Y-139085277D01*
X244260613Y-139101503D01*
X243551418Y-139395261D01*
X243391635Y-139714030D01*
X241044000Y-139714030D01*
X241044000Y-139449799D01*
X246416557Y-134077244D01*
X246452313Y-134113000D01*
X246452313Y-134113000D01*
G37*
X246452313Y-134113000D02*
X246221853Y-134343460D01*
X246011000Y-134852506D01*
X246011000Y-135403494D01*
X246221853Y-135912540D01*
X246611460Y-136302147D01*
X246842870Y-136398000D01*
X246611460Y-136493853D01*
X246221853Y-136883460D01*
X246011000Y-137392506D01*
X246011000Y-137943494D01*
X246221853Y-138452540D01*
X246611460Y-138842147D01*
X247120506Y-139053000D01*
X247671494Y-139053000D01*
X248180540Y-138842147D01*
X248570147Y-138452540D01*
X248718000Y-138095589D01*
X248718001Y-147370530D01*
X248608460Y-147106077D01*
X248367517Y-147038088D01*
X247575605Y-147830000D01*
X248367517Y-148621912D01*
X248608460Y-148553923D01*
X248718001Y-148246131D01*
X248718001Y-149942411D01*
X248570147Y-149585460D01*
X248180540Y-149195853D01*
X247965070Y-149106603D01*
X248119923Y-149042460D01*
X248187912Y-148801517D01*
X247396000Y-148009605D01*
X246604088Y-148801517D01*
X246672077Y-149042460D01*
X246838658Y-149101745D01*
X246611460Y-149195853D01*
X246221853Y-149585460D01*
X246211688Y-149610000D01*
X245436846Y-149610000D01*
X245361999Y-149595112D01*
X245287152Y-149610000D01*
X245287148Y-149610000D01*
X245065463Y-149654096D01*
X244814071Y-149822071D01*
X244771671Y-149885527D01*
X242110928Y-152546271D01*
X242047472Y-152588671D01*
X242005072Y-152652127D01*
X242005071Y-152652128D01*
X241879497Y-152840063D01*
X241820512Y-153136600D01*
X241835401Y-153211452D01*
X241835400Y-163199522D01*
X241524775Y-163407075D01*
X241325400Y-163705461D01*
X241126025Y-163407075D01*
X240634818Y-163078861D01*
X240201656Y-162992700D01*
X240075202Y-162992700D01*
X240260473Y-162807429D01*
X240323929Y-162765029D01*
X240491904Y-162513637D01*
X240536000Y-162291952D01*
X240536000Y-162291948D01*
X240550888Y-162217101D01*
X240536000Y-162142254D01*
X240536000Y-161858802D01*
X240768475Y-161626327D01*
X240831929Y-161583929D01*
X240874327Y-161520476D01*
X240874329Y-161520474D01*
X240999903Y-161332538D01*
X240999904Y-161332537D01*
X241044000Y-161110852D01*
X241044000Y-161110848D01*
X241058888Y-161036001D01*
X241044000Y-160961154D01*
X241044000Y-147625171D01*
X245998799Y-147625171D01*
X246026770Y-148175448D01*
X246183540Y-148553923D01*
X246424483Y-148621912D01*
X247216395Y-147830000D01*
X246424483Y-147038088D01*
X246183540Y-147106077D01*
X245998799Y-147625171D01*
X241044000Y-147625171D01*
X241044000Y-146293970D01*
X243391635Y-146293970D01*
X243551418Y-146612739D01*
X244342187Y-146922723D01*
X245191387Y-146906497D01*
X245307303Y-146858483D01*
X246604088Y-146858483D01*
X247396000Y-147650395D01*
X248187912Y-146858483D01*
X248119923Y-146617540D01*
X247600829Y-146432799D01*
X247050552Y-146460770D01*
X246672077Y-146617540D01*
X246604088Y-146858483D01*
X245307303Y-146858483D01*
X245900582Y-146612739D01*
X246060365Y-146293970D01*
X244726000Y-144959605D01*
X243391635Y-146293970D01*
X241044000Y-146293970D01*
X241044000Y-144396187D01*
X242583277Y-144396187D01*
X242599503Y-145245387D01*
X242893261Y-145954582D01*
X243212030Y-146114365D01*
X244546395Y-144780000D01*
X244905605Y-144780000D01*
X246239970Y-146114365D01*
X246558739Y-145954582D01*
X246868723Y-145163813D01*
X246852497Y-144314613D01*
X246558739Y-143605418D01*
X246239970Y-143445635D01*
X244905605Y-144780000D01*
X244546395Y-144780000D01*
X243212030Y-143445635D01*
X242893261Y-143605418D01*
X242583277Y-144396187D01*
X241044000Y-144396187D01*
X241044000Y-142741970D01*
X243391635Y-142741970D01*
X243522978Y-143004000D01*
X243391635Y-143266030D01*
X244726000Y-144600395D01*
X246060365Y-143266030D01*
X245929022Y-143004000D01*
X246060365Y-142741970D01*
X244726000Y-141407605D01*
X243391635Y-142741970D01*
X241044000Y-142741970D01*
X241044000Y-140844187D01*
X242583277Y-140844187D01*
X242599503Y-141693387D01*
X242893261Y-142402582D01*
X243212030Y-142562365D01*
X244546395Y-141228000D01*
X244905605Y-141228000D01*
X246239970Y-142562365D01*
X246558739Y-142402582D01*
X246868723Y-141611813D01*
X246852497Y-140762613D01*
X246558739Y-140053418D01*
X246239970Y-139893635D01*
X244905605Y-141228000D01*
X244546395Y-141228000D01*
X243212030Y-139893635D01*
X242893261Y-140053418D01*
X242583277Y-140844187D01*
X241044000Y-140844187D01*
X241044000Y-139714030D01*
X243391635Y-139714030D01*
X244726000Y-141048395D01*
X246060365Y-139714030D01*
X245900582Y-139395261D01*
X245109813Y-139085277D01*
X244260613Y-139101503D01*
X243551418Y-139395261D01*
X243391635Y-139714030D01*
X241044000Y-139714030D01*
X241044000Y-139449799D01*
X246416557Y-134077244D01*
X246452313Y-134113000D01*
G04 #@! TD*
M02*
